<?xml version="1.0" standalone="no"?><!DOCTYPE svg PUBLIC "-//W3C//DTD SVG 1.1//EN" "http://www.w3.org/Graphics/SVG/1.1/DTD/svg11.dtd"><svg t="1586877314504" class="icon" viewBox="0 0 1024 1024" version="1.1" xmlns="http://www.w3.org/2000/svg" p-id="8347" xmlns:xlink="http://www.w3.org/1999/xlink" width="32" height="32"><defs><style type="text/css"></style></defs><path d="M511.97409 0C268.767159 0 70.902751 179.57712 70.902751 400.288978c0 131.337857 70.936434 254.223869 189.832304 329.057169 4.523888 135.421276-41.502659 253.705668-41.948312 254.856073l-15.5771 39.79778 320.911061-223.639689c236.662062-5.897119 428.976544-185.121863 428.976544-400.066152C953.081703 179.57712 755.160293 0 511.97409 0zM515.736224 774.55912l-260.22981 181.375275c14.613248-48.887013 35.310166-137.312707 30.84328-234.547804l-0.331648-6.897246-5.876391-3.580764c-114.781359-69.843032-183.323708-185.94062-183.323708-310.619604 0-206.414712 186.235994-374.363418 415.161325-374.363418 228.94606 0 415.182053 167.948706 415.182053 374.363418 0 202.647396-182.748506 370.48728-407.429777 374.21314L515.736224 774.55912z" p-id="8348" fill="#1296db"></path><path d="M297.641278 317.853679c-46.477382 0-84.290455 37.813073-84.290455 84.290455s37.813073 84.306001 84.290455 84.306001c46.513656 0 84.326729-37.833801 84.326729-84.306001S344.154934 317.853679 297.641278 317.853679zM297.641278 460.581579c-32.175055 0-58.380442-26.241661-58.380442-58.416716 0-32.232057 26.205387-58.416716 58.380442-58.416716 32.232057 0 58.416716 26.184659 58.416716 58.416716C356.057994 434.339917 329.873334 460.581579 297.641278 460.581579z" p-id="8349" fill="#1296db"></path><path d="M511.97409 317.853679c-46.477382 0-84.290455 37.813073-84.290455 84.290455s37.813073 84.306001 84.290455 84.306001c46.492928 0 84.326729-37.833801 84.326729-84.306001S558.467018 317.853679 511.97409 317.853679zM511.97409 460.581579c-32.195783 0-58.416716-26.241661-58.416716-58.416716 0-32.232057 26.220933-58.416716 58.416716-58.416716 32.268331 0 58.437444 26.184659 58.437444 58.416716C570.390806 434.339917 544.221693 460.581579 511.97409 460.581579z" p-id="8350" fill="#1296db"></path><path d="M730.44214 317.853679c-46.477382 0-84.306001 37.813073-84.306001 84.290455s37.833801 84.306001 84.306001 84.306001c46.529202 0 84.363003-37.833801 84.363003-84.306001S776.971342 317.853679 730.44214 317.853679zM730.44214 460.581579c-32.175055 0-58.364896-26.241661-58.364896-58.416716 0-32.232057 26.184659-58.416716 58.364896-58.416716 32.232057 0 58.416716 26.184659 58.416716 58.416716C788.879584 434.339917 762.689743 460.581579 730.44214 460.581579z" p-id="8351" fill="#1296db"></path></svg>